<?xml version="1.0" encoding="UTF-8" standalone="no"?>
<!-- Created with Inkscape (http://www.inkscape.org/) -->

<svg
   width="210.48921mm"
   height="58.148468mm"
   viewBox="0 0 795.54979 219.77374"
   version="1.1"
   id="svg1"
   xml:space="preserve"
   inkscape:version="1.3.2 (091e20e, 2023-11-25)"
   sodipodi:docname="aiotemplate.svg"
   xmlns:inkscape="http://www.inkscape.org/namespaces/inkscape"
   xmlns:sodipodi="http://sodipodi.sourceforge.net/DTD/sodipodi-0.dtd"
   xmlns="http://www.w3.org/2000/svg"
   xmlns:svg="http://www.w3.org/2000/svg"><sodipodi:namedview
     id="namedview1"
     pagecolor="#ffffff"
     bordercolor="#000000"
     borderopacity="0.25"
     inkscape:showpageshadow="2"
     inkscape:pageopacity="0.0"
     inkscape:pagecheckerboard="0"
     inkscape:deskcolor="#d1d1d1"
     inkscape:document-units="mm"
     inkscape:zoom="0.40312135"
     inkscape:cx="554.42363"
     inkscape:cy="140.15631"
     inkscape:window-width="1280"
     inkscape:window-height="694"
     inkscape:window-x="362"
     inkscape:window-y="1105"
     inkscape:window-maximized="1"
     inkscape:current-layer="layer1" /><defs
     id="defs1" /><g
     inkscape:label="Layer 1"
     inkscape:groupmode="layer"
     id="layer1"
     transform="translate(-139.14045,-239.11767)"><g
       id="g3"
       transform="translate(-74.41928,-52.093496)"><g
         id="g2"
         transform="matrix(-0.28074526,-0.065008,-0.065008,0.28074526,388.68886,295.1814)"
         style="fill:#d46700;fill-opacity:1">
	<path
   d="M 19.2,4.4 2.9,10.7 C 1.8,11.1 1.8,11.8 2.7,12 l 4.1,1.3 1.6,4.8 c 0.2,0.5 0.1,0.7 0.6,0.7 0.4,0 0.6,-0.2 0.8,-0.4 0.1,-0.1 1,-1 2,-2 l 4.2,3.1 c 0.8,0.4 1.3,0.2 1.5,-0.7 L 20.3,5.7 C 20.6,4.6 19.9,4 19.2,4.4 Z M 17.1,7.4 9.3,14.5 9,17.8 7.4,13 16.6,7.2 C 17,6.9 17.4,7.1 17.1,7.4 Z"
   id="path1"
   style="fill:#d46700;fill-opacity:1"
   transform="matrix(-29.187036,-6.7584072,-6.7584072,29.187036,619.2693,291.57349)" /><path
   class="st0"
   d="m 395.25,443.374 c -2.552,-2.5 -4.37,-5.249 -5.636,-8.24 -1.886,-4.469 -2.424,-9.521 -1.552,-14.315 0.886,-4.795 3.029,-9.21 6.748,-13.035 l 47.694,-48.899 c 8.953,-9.164 15.724,-19.852 20.148,-31.19 6.65,-17.011 8.12,-35.424 4.484,-53.041 -3.613,-17.595 -12.482,-34.523 -26.267,-47.944 -9.164,-8.953 -19.86,-15.724 -31.19,-20.147 -17.011,-6.65 -35.424,-8.12 -53.034,-4.491 -17.602,3.62 -34.53,12.489 -47.959,26.274 l -77.816,79.77 c -2.499,2.552 -5.256,4.378 -8.248,5.636 -4.46,1.886 -9.52,2.424 -14.307,1.56 -4.802,-0.894 -9.21,-3.037 -13.034,-6.755 -2.552,-2.492 -4.37,-5.242 -5.635,-8.241 -1.886,-4.469 -2.424,-9.513 -1.553,-14.3 0.886,-4.802 3.029,-9.218 6.74,-13.042 l 20.087,-20.586 c 8.952,-9.165 15.723,-19.86 20.146,-31.19 6.651,-17.012 8.12,-35.424 4.484,-53.034 -3.469,-16.906 -11.831,-33.137 -24.677,-46.293 L 204.194,86.409 C 198.15,66.292 182.024,50.795 161.688,45.539 l -40.34,-10.437 c -7.513,-1.939 -15.496,0.288 -20.919,5.832 L 85.613,56.125 c -5.423,5.552 -7.446,13.588 -5.316,21.048 l 11.429,40.074 c 5.764,20.208 21.654,35.932 41.923,41.491 l 33.174,9.089 c 0,0 3.136,6.514 4.393,9.506 1.886,4.477 2.424,9.52 1.56,14.307 -0.894,4.803 -3.037,9.218 -6.756,13.043 l -20.08,20.587 c -8.945,9.172 -15.716,19.859 -20.146,31.19 -6.643,17.011 -8.112,35.424 -4.477,53.041 3.606,17.595 12.482,34.531 26.26,47.952 9.164,8.953 19.859,15.724 31.19,20.148 17.012,6.65 35.424,8.112 53.042,4.484 17.602,-3.62 34.523,-12.482 47.951,-26.267 l 77.824,-79.778 c 2.5,-2.545 5.249,-4.37 8.24,-5.628 4.469,-1.886 9.521,-2.432 14.3,-1.56 4.802,0.894 9.225,3.037 13.042,6.748 2.56,2.5 4.378,5.249 5.635,8.24 1.893,4.469 2.431,9.521 1.56,14.308 -0.886,4.802 -3.037,9.21 -6.748,13.042 l -47.702,48.891 c -8.953,9.164 -15.716,19.867 -20.147,31.198 -6.643,17.004 -8.112,35.416 -4.476,53.034 3.606,17.602 12.482,34.522 26.26,47.952 41.18,40.165 117.088,11.262 123.087,-18.05 -21.594,1.538 -55.397,-7.574 -75.385,-30.841 z"
   id="path1-3"
   style="fill:#d46700;fill-opacity:1" />
	<path
   class="st0"
   d="m 92.786,42.461 c 0,0 -32.19,-30.403 -31.713,-42.461 -7.165,7.166 0.576,20.284 0.576,20.284 0,0 -13.118,-7.741 -20.284,-0.576 12.066,-0.478 42.468,31.706 42.468,31.706 z"
   id="path2"
   style="fill:#d46700;fill-opacity:1" />
</g><text
         xml:space="preserve"
         style="font-size:273.844px;font-family:Goldman;-inkscape-font-specification:'Goldman, Normal';fill:#d46700;stroke:#876806;stroke-width:0;stroke-linecap:round;stroke-linejoin:round;stroke-dasharray:none"
         x="399.7775"
         y="486.18497"
         id="text1"><tspan
           sodipodi:role="line"
           id="tspan1"
           x="399.7775"
           y="486.18497"
           style="font-style:normal;font-variant:normal;font-weight:normal;font-stretch:normal;font-size:133.333px;font-family:Goldman;-inkscape-font-specification:'Goldman, Normal';font-variant-ligatures:normal;font-variant-caps:normal;font-variant-numeric:normal;font-variant-east-asian:normal;stroke-width:0;stroke-dasharray:none">template</tspan></text><text
         xml:space="preserve"
         style="font-style:normal;font-variant:normal;font-weight:normal;font-stretch:normal;font-size:133.333px;font-family:Goldman;-inkscape-font-specification:'Goldman, Normal';font-variant-ligatures:normal;font-variant-caps:normal;font-variant-numeric:normal;font-variant-east-asian:normal;fill:#d46700;stroke:#876806;stroke-width:0;stroke-linecap:round;stroke-linejoin:round;stroke-dasharray:none"
         x="396.77579"
         y="385.43195"
         id="text2"><tspan
           sodipodi:role="line"
           id="tspan2"
           x="396.77579"
           y="385.43195">aio</tspan></text></g></g><style
     type="text/css"
     id="style1">
	.st0{fill:#000000;}
</style><style
     type="text/css"
     id="style1-2">
	.st0{fill:none;}
</style><style
     type="text/css"
     id="style1-7">
	.st0{fill:#000000;}
</style></svg>
